<svg width="154" height="154" xmlns="http://www.w3.org/2000/svg" fill-rule="evenodd" clip-rule="evenodd" stroke-linejoin="round" stroke-miterlimit="1.414"><path d="M22.507 22.515c9.949-9.95 20.664-16.14 34.25-19.782C70.346-.913 82.723-.908 96.314 2.728c13.591 3.647 24.308 9.837 34.256 19.787 9.946 9.943 16.132 20.654 19.77 34.24 3.641 13.595 3.641 25.967 0 39.563-3.641 13.585-9.831 24.301-19.78 34.251-9.946 9.942-20.655 16.129-34.244 19.774-13.592 3.635-25.969 3.641-39.559-.006-13.583-3.641-24.293-9.826-34.238-19.769-9.949-9.951-16.14-20.667-19.788-34.258-3.641-13.584-3.641-25.967 0-39.552 3.645-13.589 9.831-24.299 19.776-34.243z"/><g fill="#fff" fill-rule="nonzero"><path d="M39.594 90.958c8.781 2.264 17.737-3.016 20.003-11.797H42.674a2.045 2.045 0 0 1-1.871-2.887l7.572-16.951c-.19-.061-.379-.112-.571-.162-8.776-2.267-17.733 3.012-20.003 11.793-2.265 8.78 3.016 17.737 11.793 20.002v.002zm12.542-29.987l-6.295 14.088H60.12a16.434 16.434 0 0 0-7.984-14.088zm12.086 14.088h4.105l-10.26-27.364-4.252 9.509a20.519 20.519 0 0 1 10.407 17.855zm8.407-.219L98.33 46.329H61.938L72.629 74.84zm21.789 6.996c3.743 8.261 13.471 11.918 21.732 8.178 8.257-3.743 11.918-13.474 8.175-21.731a16.417 16.417 0 0 0-17.809-9.39l4.814 15.557a2.05 2.05 0 0 1-1.352 2.57 2.054 2.054 0 0 1-2.566-1.351l-4.82-15.561c-8.255 3.739-11.917 13.471-8.174 21.728zm-70.23-13.137c3.513-10.778 15.098-16.666 25.872-13.151l5.955-13.323-1.541-4.106h-4.618v-4.102h17.443a1.026 1.026 0 0 1 .24 2.023l-8.68 2.08 1.537 4.105h36.661l-1.646-5.317a4.104 4.104 0 0 0-3.922-2.891h-6.744v-4.106h6.744c3.6 0 6.779 2.343 7.842 5.781l5.961 19.257a20.517 20.517 0 0 1 22.979 12.111c4.418 10.438-.466 22.482-10.903 26.898-10.438 4.416-22.48-.463-26.898-10.899-4.416-10.437.463-22.48 10.904-26.898l-1.632-5.271-24.261 26.919a4.1 4.1 0 0 1-3.048 1.352h-8.627c-.154.768-.355 1.52-.596 2.259-3.513 10.778-15.098 16.666-25.871 13.152-10.779-3.51-16.662-15.095-13.152-25.873M23.928 110.423c0-1.035-.252-1.837-.756-2.408l.497-.497c.306.252.538.54.697.865.159.325.272.72.338 1.184.173-.384.382-.726.627-1.025.246-.298.501-.534.766-.706.451-.279 1.009-.418 1.672-.418.172 0 .517.047 1.035.139v.757a5.924 5.924 0 0 0-.995-.1c-.757 0-1.367.186-1.831.557a5.783 5.783 0 0 0-.637.667 4.943 4.943 0 0 0-.577.866v7.144h-.836v-7.025zM33.122 117.647c-.902 0-1.671-.226-2.308-.677-.637-.451-1.111-1.061-1.423-1.83-.312-.77-.468-1.619-.468-2.548 0-1.021.193-1.923.577-2.706a4.252 4.252 0 0 1 1.662-1.821c.723-.431 1.582-.647 2.577-.647.305 0 .693.017 1.164.05s.886.076 1.244.129h.995v8.358c0 .253.09.458.269.617.179.16.375.239.587.239a.8.8 0 0 0 .617-.259l.696.458c-.318.425-.749.637-1.293.637-.491 0-.899-.166-1.224-.497a1.671 1.671 0 0 1-.488-1.214c0-.093.014-.219.04-.379-.531 1.394-1.605 2.09-3.224 2.09zm.02-.776c.65 0 1.227-.163 1.731-.488a3.128 3.128 0 0 0 1.135-1.243c.199-.385.298-.843.298-1.374v-5.413a3.593 3.593 0 0 1-.627-.019l-.646-.06a20.568 20.568 0 0 0-1.413-.08c-.81 0-1.503.193-2.08.577a3.57 3.57 0 0 0-1.303 1.572c-.292.664-.438 1.4-.438 2.209 0 .743.126 1.447.378 2.11.252.663.63 1.197 1.134 1.602.504.405 1.115.607 1.831.607zM43.61 117.647c-.902 0-1.669-.226-2.299-.677-.63-.451-1.107-1.058-1.433-1.821-.325-.762-.487-1.615-.487-2.557 0-1.021.192-1.92.577-2.696a4.332 4.332 0 0 1 1.662-1.821c.723-.438 1.582-.657 2.577-.657.305 0 .716.02 1.234.06.517.04.962.086 1.333.139v-4.637h.836v12.975c0 .226.086.425.259.597a.839.839 0 0 0 .616.259.78.78 0 0 0 .598-.259l.696.458c-.318.425-.75.637-1.294.637-.49 0-.898-.166-1.223-.497a1.671 1.671 0 0 1-.488-1.214c0-.093.013-.219.04-.379-.266.717-.677 1.244-1.234 1.583-.557.338-1.214.507-1.97.507zm0-.776a3.25 3.25 0 0 0 1.711-.468 2.913 2.913 0 0 0 1.155-1.263c.199-.385.298-.843.298-1.374v-5.373c-.146 0-.338-.02-.577-.059a10.993 10.993 0 0 0-1.572-.14c-1.526 0-2.634.385-3.324 1.154-.69.77-1.034 1.805-1.034 3.105 0 .809.126 1.549.378 2.219.252.67.63 1.204 1.134 1.602.504.398 1.114.597 1.831.597zM51.272 107.398c0-1.472.228-2.63.686-3.472.458-.843 1.264-1.264 2.418-1.264.876 0 1.556.249 2.04.746.484.498.726 1.217.726 2.159 0 1.128-.348 1.987-1.045 2.577-.696.591-1.655.886-2.875.886h-1.115v3.582h3.005v.776h-3.005v9.334h-.835v-15.324zm1.95.856c.955 0 1.701-.246 2.239-.736.537-.491.806-1.148.806-1.971 0-.65-.173-1.164-.518-1.542-.345-.378-.816-.567-1.413-.567-.875 0-1.466.361-1.771 1.085-.305.723-.458 1.661-.458 2.815v.916h1.115zM61.799 117.647c-.968 0-1.824-.216-2.567-.647a4.414 4.414 0 0 1-1.722-1.801c-.404-.769-.607-1.645-.607-2.627 0-.981.203-1.864.607-2.646a4.517 4.517 0 0 1 1.722-1.841c.743-.445 1.605-.667 2.587-.667.955 0 1.804.219 2.547.657a4.542 4.542 0 0 1 1.732 1.821c.411.776.616 1.661.616 2.656 0 1.009-.205 1.898-.616 2.667a4.394 4.394 0 0 1-1.742 1.791c-.749.425-1.602.637-2.557.637zm.02-.776c.822 0 1.539-.192 2.149-.577a3.725 3.725 0 0 0 1.393-1.572c.319-.664.478-1.413.478-2.249 0-.849-.166-1.596-.498-2.239a3.625 3.625 0 0 0-1.413-1.502c-.61-.359-1.313-.538-2.109-.538-.849 0-1.576.193-2.179.577a3.743 3.743 0 0 0-1.383 1.572c-.319.664-.478 1.4-.478 2.209 0 .836.166 1.583.498 2.239a3.664 3.664 0 0 0 1.413 1.533c.61.364 1.32.547 2.129.547zM68.366 110.423c0-1.035-.252-1.837-.756-2.408l.498-.497c.305.252.537.54.696.865.159.325.272.72.338 1.184.173-.384.382-.726.627-1.025.246-.298.501-.534.766-.706.451-.279 1.009-.418 1.672-.418.173 0 .517.047 1.035.139v.757a5.924 5.924 0 0 0-.995-.1c-.756 0-1.367.186-1.831.557a5.783 5.783 0 0 0-.637.667 4.943 4.943 0 0 0-.577.866v7.144h-.836v-7.025zM76.923 117.647c-1.247 0-2.341-.358-3.283-1.075l.418-.617c.942.611 1.93.916 2.965.916.716 0 1.32-.163 1.811-.488.491-.325.736-.826.736-1.502 0-.438-.122-.809-.368-1.115-.245-.305-.62-.577-1.124-.816-.186-.079-.584-.245-1.194-.497a14.858 14.858 0 0 1-1.473-.637 2.554 2.554 0 0 1-.895-.766c-.239-.325-.359-.733-.359-1.224 0-.756.269-1.347.806-1.771.538-.425 1.218-.637 2.04-.637.411 0 .846.05 1.304.149.457.1.839.236 1.144.408l-.179.757a5.208 5.208 0 0 0-1.184-.408 5.297 5.297 0 0 0-1.105-.13c-.61 0-1.084.136-1.423.408-.338.272-.507.64-.507 1.105 0 .384.113.709.338.975.226.265.504.481.836.647.332.165.783.361 1.353.587.69.252 1.208.484 1.552.696.452.279.787.594 1.005.945.219.352.329.787.329 1.304 0 .942-.339 1.642-1.015 2.099-.677.458-1.519.687-2.528.687zM85.421 117.567c-1.459 0-2.564-.427-3.313-1.283-.75-.856-1.125-2.033-1.125-3.533 0-1.021.173-1.943.518-2.766.345-.822.839-1.469 1.482-1.94.644-.471 1.403-.707 2.279-.707.942 0 1.751.256 2.428.767.676.51 1.035 1.19 1.074 2.039h-.855c-.04-.663-.309-1.177-.806-1.542-.498-.365-1.085-.547-1.762-.547-.782 0-1.436.232-1.96.696-.524.465-.912 1.058-1.164 1.782a6.752 6.752 0 0 0-.378 2.238c0 1.247.318 2.229.955 2.946.637.716 1.513 1.074 2.627 1.074.544 0 1.065-.079 1.562-.239a10.65 10.65 0 0 0 1.602-.676l.378.617c-1.101.716-2.282 1.074-3.542 1.074zM98.914 117.587c-.491 0-.896-.159-1.214-.477-.319-.319-.478-.717-.478-1.194v-5.374c0-.809-.215-1.412-.647-1.81-.431-.398-1.044-.597-1.84-.597-.717 0-1.33.179-1.841.537-.511.358-1.032.895-1.562 1.612v7.104h-.836V102.94h.836v6.548c.437-.73.945-1.267 1.522-1.612.577-.345 1.257-.518 2.04-.518 1.074 0 1.87.259 2.388.777.517.517.776 1.3.776 2.348v5.433a.77.77 0 0 0 .259.607.874.874 0 0 0 .597.228.78.78 0 0 0 .597-.258l.696.477a1.581 1.581 0 0 1-1.293.617zM109.481 117.667c-.517 0-.935-.166-1.254-.498-.318-.331-.477-.756-.477-1.273 0-.067.013-.193.039-.378-.53.756-1.068 1.293-1.612 1.612-.544.318-1.207.477-1.99.477-.995 0-1.751-.229-2.268-.686-.518-.458-.803-1.171-.856-2.14v-5.094a1.22 1.22 0 0 0-.308-.816 4.703 4.703 0 0 0-.767-.697l.458-.696c.464.345.823.686 1.075 1.025.252.338.378.733.378 1.184v4.577c0 1.711.802 2.567 2.408 2.567.729 0 1.353-.169 1.87-.507.518-.339 1.042-.879 1.573-1.622l.019-7.125h.836l-.02 8.398c0 .252.093.458.279.617a.905.905 0 0 0 .597.239.777.777 0 0 0 .597-.259l.697.478c-.332.411-.757.617-1.274.617zM120.307 117.707c-.504 0-.912-.163-1.224-.488-.312-.325-.468-.726-.468-1.204v-5.254c0-1.711-.796-2.567-2.388-2.567-.743 0-1.38.183-1.91.547-.531.365-1.062.899-1.592 1.602v7.105h-.816v-7.025c0-1.035-.252-1.837-.756-2.408l.497-.497c.557.424.896 1.114 1.015 2.069.478-.769 1.015-1.323 1.612-1.661.597-.339 1.28-.508 2.05-.508.982 0 1.734.229 2.258.687.525.457.813 1.17.866 2.139v5.771c0 .252.093.458.279.617a.905.905 0 0 0 .597.239.82.82 0 0 0 .597-.259l.676.458a1.565 1.565 0 0 1-1.293.637zM126.974 123.16c-.611 0-1.128-.15-1.553-.448a2.797 2.797 0 0 1-.955-1.154 3.575 3.575 0 0 1-.318-1.483c0-.491.093-.949.278-1.373.186-.425.458-.783.816-1.075a3.455 3.455 0 0 1-1.612-.696c-.663-.518-1.154-1.211-1.472-2.08-.319-.869-.478-1.702-.478-2.498 0-.862.196-1.675.587-2.437a4.598 4.598 0 0 1 1.682-1.831c.729-.458 1.572-.687 2.527-.687.345 0 .756.02 1.234.06l1.234.139h.955v12.259c0 1.008-.269 1.811-.806 2.408s-1.244.896-2.119.896zm-1.175-6.289c.398 0 .777-.086 1.135-.259a4.54 4.54 0 0 0 1.055-.706c.358-.312.643-.674.855-1.085.173-.305.259-.597.259-.875v-5.632l-2.07-.12h-.656c-.81 0-1.51.209-2.1.627a4.004 4.004 0 0 0-1.343 1.622 4.99 4.99 0 0 0-.458 2.109c0 .717.139 1.407.418 2.07.279.663.67 1.204 1.174 1.622a2.635 2.635 0 0 0 1.731.627zm1.274 5.492c.65 0 1.141-.225 1.473-.676.331-.451.517-1.035.557-1.751v-4.06c-.199.159-.431.365-.697.617a9.634 9.634 0 0 1-.477.438c-.159.146-.577.404-1.254.776-.332.199-.517.312-.557.338a3.24 3.24 0 0 0-.876.846c-.212.312-.318.693-.318 1.144 0 .61.189 1.151.567 1.622.378.471.905.706 1.582.706z"/></g></svg>